<svg width="700" height="422" viewBox="0 0 700 422" fill="none" xmlns="http://www.w3.org/2000/svg">
<path d="M647.028 155.451C648.935 165.87 643.006 177.589 629.725 189.981C616.504 202.317 596.326 214.997 570.634 227.27C519.269 251.806 446.186 274.564 363.567 289.689C280.948 304.814 204.542 309.422 147.817 304.673C119.443 302.298 96.081 297.588 79.3476 290.736C62.5379 283.853 52.8413 274.994 50.934 264.575C49.0268 254.157 54.9561 242.437 68.2372 230.045C81.458 217.71 101.636 205.029 127.328 192.756C178.692 168.22 251.776 145.462 334.395 130.337C417.014 115.213 493.42 110.604 550.145 115.353C578.519 117.728 601.881 122.438 618.614 129.29C635.424 136.174 645.121 145.032 647.028 155.451Z" stroke="#32B5FF" stroke-width="3"/>
<path d="M662.885 153.214C665.133 165.497 659.001 179.021 645.261 193.074C631.554 207.091 610.522 221.368 583.673 235.064C529.993 262.449 453.377 287.356 366.558 303.249C279.739 319.143 199.268 322.993 139.368 316.401C109.408 313.104 84.6824 307.205 66.899 298.952C49.0715 290.678 38.5461 280.203 36.2975 267.92C34.0489 255.637 40.1808 242.112 53.9212 228.06C67.6276 214.042 88.6599 199.766 115.509 186.069C169.189 158.685 245.805 133.778 332.624 117.884C419.443 101.991 499.914 98.1408 559.814 104.732C589.774 108.029 614.5 113.929 632.283 122.182C650.111 130.455 660.636 140.93 662.885 153.214Z" stroke="#32B5FF" stroke-width="3"/>
<path d="M134.151 228.076L138.788 227.242L141.306 241.244L158.929 238.074L156.411 224.073L161.048 223.239L167.142 257.125L162.505 257.959L159.655 242.111L142.032 245.281L144.882 261.128L140.245 261.962L134.151 228.076ZM169.213 221.77L173.85 220.936L179.944 254.822L175.308 255.656L169.213 221.77ZM181.324 219.592L186.745 218.617L208.797 242.989L203.861 215.539L208.221 214.755L214.315 248.641L209.171 249.566L186.868 225.263L191.801 252.69L187.418 253.478L181.324 219.592ZM236.453 230.324L228.617 216.278L225.842 232.232L236.453 230.324ZM225.313 211.681L230.504 210.748L248.893 242.422L243.864 243.327L238.602 233.795L225.199 236.206L223.357 247.015L218.651 247.861L225.313 211.681ZM257.977 205.807L281.483 201.579L282.229 205.731L263.314 209.133L265.164 219.421L281.796 216.43L282.522 220.467L265.89 223.458L268.662 238.867L264.071 239.693L257.977 205.807ZM286.857 200.613L311.563 196.17L312.309 200.322L292.079 203.96L293.929 214.248L312.637 210.884L313.342 214.805L294.635 218.17L296.701 229.657L317.277 225.957L318.003 229.993L292.952 234.499L286.857 200.613ZM336.476 207.716C338.629 207.328 340.251 206.592 341.342 205.507C342.448 204.419 342.799 202.752 342.395 200.507C341.961 198.093 340.789 196.605 338.878 196.044C337.857 195.751 336.562 195.746 334.993 196.028L323.783 198.044L325.865 209.624L336.476 207.716ZM318.483 194.925L334.169 192.104C336.752 191.639 338.95 191.633 340.762 192.085C344.205 192.958 346.276 195.34 346.976 199.231C347.341 201.261 347.217 202.998 346.603 204.442C346.005 205.883 345.023 207.131 343.657 208.186C345.077 208.487 346.196 209.016 347.015 209.773C347.849 210.528 348.482 211.883 348.912 213.838L349.891 218.353C350.17 219.636 350.45 220.578 350.733 221.178C351.203 222.205 351.82 222.808 352.582 222.989L352.719 223.75L347.091 224.762C346.884 224.498 346.694 224.143 346.518 223.698C346.343 223.253 346.106 222.375 345.807 221.064L344.513 215.462C344.007 213.267 342.918 211.931 341.244 211.454C340.293 211.196 338.88 211.236 337.003 211.574L326.554 213.453L329.167 227.986L324.577 228.811L318.483 194.925ZM352.069 188.885L357.49 187.91L379.543 212.282L374.606 184.832L378.966 184.048L385.06 217.934L379.916 218.859L357.613 194.555L362.546 221.983L358.163 222.771L352.069 188.885ZM393.335 205.158C393.789 207.061 394.523 208.54 395.538 209.596C397.465 211.567 400.35 212.207 404.195 211.516C405.917 211.206 407.441 210.678 408.768 209.931C411.334 208.486 412.395 206.532 411.953 204.072C411.621 202.226 410.808 201.015 409.513 200.438C408.206 199.88 406.256 199.54 403.662 199.419L398.885 199.206C395.765 199.069 393.508 198.705 392.116 198.114C389.709 197.086 388.252 195.165 387.746 192.351C387.198 189.306 387.802 186.618 389.558 184.286C391.313 181.954 394.121 180.441 397.981 179.747C401.534 179.108 404.703 179.427 407.488 180.704C410.286 181.963 412.024 184.476 412.702 188.244L408.388 189.02C407.831 187.247 407.089 185.943 406.161 185.11C404.444 183.593 401.909 183.136 398.556 183.739C395.85 184.226 394.007 185.145 393.027 186.496C392.048 187.847 391.694 189.276 391.965 190.783C392.263 192.444 393.174 193.534 394.696 194.054C395.692 194.383 397.856 194.629 401.187 194.792L406.134 195.021C408.519 195.132 410.416 195.529 411.825 196.213C414.263 197.409 415.753 199.515 416.295 202.529C416.97 206.281 416.084 209.211 413.637 211.318C411.205 213.422 408.183 214.799 404.569 215.449C400.355 216.207 396.863 215.724 394.092 213.999C391.324 212.291 389.634 209.602 389.022 205.934L393.335 205.158ZM442.378 172.643L443.104 176.68L431.686 178.734L437.054 208.583L432.394 209.421L427.026 179.572L415.608 181.625L414.882 177.588L442.378 172.643ZM465.146 184.575C467.299 184.188 468.921 183.452 470.012 182.367C471.118 181.279 471.469 179.612 471.065 177.367C470.631 174.952 469.459 173.465 467.548 172.903C466.527 172.611 465.232 172.605 463.663 172.887L452.453 174.904L454.535 186.483L465.146 184.575ZM447.153 171.785L462.839 168.964C465.422 168.499 467.62 168.493 469.432 168.945C472.875 169.818 474.946 172.2 475.646 176.09C476.011 178.12 475.887 179.857 475.274 181.301C474.675 182.742 473.693 183.991 472.327 185.046C473.747 185.346 474.866 185.875 475.685 186.633C476.519 187.388 477.152 188.743 477.583 190.697L478.561 195.212C478.84 196.496 479.12 197.438 479.403 198.038C479.873 199.064 480.49 199.668 481.252 199.848L481.389 200.609L475.761 201.622C475.555 201.357 475.364 201.003 475.189 200.558C475.013 200.113 474.776 199.235 474.477 197.923L473.183 192.322C472.678 190.127 471.588 188.791 469.915 188.314C468.963 188.056 467.55 188.096 465.673 188.433L455.224 190.313L457.837 204.845L453.247 205.671L447.153 171.785ZM495.198 162.192C501.18 161.116 505.955 162.241 509.522 165.569C512.306 168.164 514.119 171.799 514.96 176.474C515.87 181.533 515.342 185.97 513.377 189.784C511.071 194.263 507.126 197.005 501.544 198.009C496.331 198.946 491.923 197.961 488.32 195.053C485.062 192.21 482.977 188.251 482.064 183.176C481.24 178.593 481.673 174.467 483.362 170.797C485.532 166.089 489.477 163.22 495.198 162.192ZM501.359 193.803C505.404 193.076 508.066 191.105 509.345 187.89C510.637 184.657 510.944 181.157 510.266 177.389C509.55 173.406 507.928 170.388 505.399 168.334C502.886 166.278 499.823 165.575 496.209 166.225C492.703 166.855 490.059 168.577 488.279 171.39C486.496 174.187 486.026 177.931 486.87 182.621C487.545 186.373 489.06 189.371 491.416 191.615C493.785 193.84 497.1 194.569 501.359 193.803ZM517.393 159.152L523.967 157.97L538.854 184.869L543.367 154.481L549.872 153.311L555.966 187.197L551.607 187.981L548.01 167.982C547.885 167.29 547.695 166.141 547.438 164.537C547.181 162.932 546.888 161.214 546.559 159.384L542.034 189.703L537.489 190.52L522.615 163.69L522.802 164.728C522.951 165.559 523.194 166.825 523.532 168.526C523.883 170.21 524.13 171.451 524.273 172.251L527.87 192.25L523.487 193.038L517.393 159.152Z" fill="#32B5FF"/>
</svg>
